<svg xmlns="http://www.w3.org/2000/svg" xmlns:xlink="http://www.w3.org/1999/xlink" version="1.1" x="0px" y="0px" viewBox="0 0 100 125" enable-background="new 0 0 100 100" xml:space="preserve"><g><polygon fill="#30bed6" points="29.654,53.495 28.375,52.217 27.098,52.217 24.542,49.662 23.265,49.662 21.986,48.384 19.431,48.384    18.792,49.022 17.514,49.022 14.319,45.828 13.042,45.828 11.763,44.55 11.763,43.272 13.042,41.995 16.875,41.995 21.986,36.883    23.265,36.883 25.82,34.327 27.098,34.327 28.375,33.049 27.098,31.771 25.82,31.771 25.82,30.494 24.542,30.494 21.348,33.688    18.792,31.132 20.069,29.854 21.348,29.854 21.986,29.215 23.265,29.215 24.542,27.938 27.098,30.494 28.375,29.215 28.375,27.938    27.098,26.66 29.654,24.104 25.82,24.104 23.265,26.66 21.986,26.66 20.708,27.938 19.431,26.66 15.597,26.66 14.319,27.938    10.486,27.938 9.847,27.299 6.013,27.299 5.374,27.938 4.097,27.938 0.901,31.132 1.541,31.771 2.819,31.771 4.097,30.494    6.652,30.494 7.93,31.771 7.93,34.327 6.652,35.605 6.652,36.883 5.374,38.161 5.374,39.438 7.93,41.995 7.93,43.272    11.763,47.106 13.042,47.106 15.597,49.662 16.875,49.662 17.514,50.301 17.514,51.577 16.875,52.217 16.875,54.773 17.514,55.411    17.514,56.689 20.708,59.884 20.708,66.274 21.986,67.552 21.986,70.107 23.265,71.386 24.542,71.386 24.542,70.107 23.903,69.469    23.903,68.189 25.82,66.274 25.82,64.995 28.375,62.44 28.376,61.163 30.931,58.606 30.932,57.329 32.209,56.051 32.209,54.773    30.931,53.495  "/><polygon fill="#37C9CA" points="41.793,24.743 41.155,24.104 30.931,24.104 29.654,25.382 30.292,26.021 31.571,26.021 32.209,26.66    32.209,27.938 30.931,29.215 32.209,30.494 33.487,30.494 34.766,29.215 36.043,29.215 37.321,27.938 38.599,27.938  "/><polygon fill="#30bed6" points="57.768,58.606 57.768,61.163 58.406,61.801 59.045,61.163 59.045,59.884 60.323,58.606 60.323,57.329    59.684,56.689  "/><polygon fill="#30bed6" points="80.769,54.773 79.491,54.773 75.657,50.939 75.657,52.217 78.851,55.411 81.407,55.411  "/><polygon fill="#37C9CA" points="82.685,50.301 81.407,50.301 81.407,51.577 80.13,52.856 80.769,53.495 82.046,53.495 82.685,52.856    82.685,51.577 83.325,50.939  "/><rect fill="#37C9CA" x="84.603" y="49.662" width="1.277" height="1.278"/><polygon fill="#30bed6" points="89.074,68.189 89.714,67.552 88.436,67.552  "/><polygon fill="#37C9CA" points="89.074,52.856 88.436,53.495 87.157,52.217 87.157,53.495 87.797,54.135 89.074,54.135 90.353,55.411    91.63,55.411 92.27,56.051 92.27,54.773 90.353,52.856  "/><polygon fill="#37C9CA" points="92.27,61.163 92.27,59.884 91.63,59.245 91.63,56.689 90.991,56.051 90.353,56.689 90.353,57.968 89.714,58.606    87.797,56.689 87.157,57.329 85.88,57.329 83.325,59.884 82.046,59.884 80.769,61.163 80.768,63.718 80.13,64.357 80.769,64.995    83.325,64.995 84.603,63.718 85.88,63.718 88.436,66.274 89.714,66.274 92.908,63.079 92.908,61.801  "/><rect fill="#37C9CA" x="84.393" y="39.306" transform="matrix(0.707 -0.7072 0.7072 0.707 -2.8629 72.6054)" width="3.613" height="0.904"/><polygon fill="#37C9CA" points="41.147,34.327 41.147,34.327 42.425,34.327 43.703,33.049 43.703,31.771 43.703,31.771 42.425,31.771    41.147,33.049  "/><polygon fill="#37C9CA" points="75.657,49.662 78.212,52.217 78.212,50.939 76.296,49.022 76.936,48.384 78.212,49.662 79.491,48.384    79.491,47.106 78.212,45.828 79.491,44.55 80.769,44.55 82.046,43.272 82.046,40.716 80.769,39.438 80.769,38.161 81.407,37.521    82.046,38.161 83.325,38.161 84.603,36.883 84.603,34.327 82.046,31.771 84.603,31.771 85.88,30.494 89.074,33.688 89.074,31.132    90.991,29.215 89.714,27.938 80.769,27.938 80.13,27.299 75.02,27.299 74.379,26.66 70.547,26.66 69.268,25.382 64.155,25.382    62.879,26.66 61.6,26.66 60.323,27.938 55.211,27.938 54.573,28.577 53.935,27.938 48.822,27.938 45.627,31.132 46.267,31.771    46.266,33.049 44.981,34.327 43.703,34.327 43.064,34.966 43.703,35.605 43.703,36.883 41.147,36.883 40.508,37.521 40.508,38.799    41.154,39.438 42.433,39.438 44.988,36.883 46.267,36.883 46.905,36.244 48.182,37.521 48.822,36.883 50.1,38.161 51.377,38.161    52.655,39.438 55.211,39.438 55.211,40.716 54.572,41.355 52.017,41.355 51.377,40.716 50.099,40.716 49.461,41.355 48.822,40.716    47.544,40.716 46.267,39.438 43.71,39.438 43.072,40.078 41.793,40.078 38.599,43.272 38.599,48.384 41.155,50.939 43.71,50.939    44.35,50.301 45.627,50.301 46.267,50.939 46.267,53.495 48.182,55.411 48.182,56.689 47.544,57.329 47.544,59.884 48.182,60.523    48.182,61.801 48.822,62.44 48.822,63.718 50.1,64.995 51.377,64.995 53.935,62.44 53.935,61.163 57.128,57.968 57.128,56.689    56.489,56.051 56.489,53.495 60.323,49.662 60.323,48.384 57.768,48.384 56.489,47.106 56.489,45.828 54.573,43.911 54.572,42.633    55.211,41.995 55.211,43.272 57.768,45.828 57.768,47.106 58.406,47.745 59.045,47.106 60.323,47.106 62.879,44.55 61.6,43.272    60.323,43.272 59.045,41.995 59.684,41.355 60.961,42.633 62.24,42.633 62.879,43.272 65.434,43.272 67.352,45.188 67.352,46.467    68.629,47.745 68.629,49.022 69.268,49.662 69.906,49.022 69.906,46.467 71.823,44.55 73.102,44.55 75.657,47.106  "/><polygon fill="#37C9CA" points="98.658,64.995 97.381,66.274 97.381,67.552 98.658,66.274  "/><polygon fill="#37C9CA" points="94.824,67.552 93.547,68.829 94.186,69.469 95.463,68.189 96.742,68.189 96.742,66.913 96.104,67.552  "/></g></svg>
